<svg width="1354" height="953" viewBox="-677 -476.5 1354 953"><rect x="-677" y="-476.5" width="1354" height="953" fill="white"></rect><text x="0" y="9.28" style="text-anchor: middle; font-family: Calibri; font-size: 29px; font-weight: bold; user-select: none;">0,0,0</text><text x="0" y="9.28" style="text-anchor: middle; font-family: Calibri; font-size: 29px; font-weight: bold; user-select: none;">0,0,0</text><text x="103.92304845413263" y="9.28" style="text-anchor: middle; font-family: Calibri; font-size: 29px; font-weight: bold; user-select: none;">1,0,-1</text><text x="0" y="9.28" style="text-anchor: middle; font-family: Calibri; font-size: 29px; font-weight: bold; user-select: none;">0,0,0</text><text x="103.92304845413263" y="9.28" style="text-anchor: middle; font-family: Calibri; font-size: 29px; font-weight: bold; user-select: none;">1,0,-1</text><text x="207.84609690826525" y="9.28" style="text-anchor: middle; font-family: Calibri; font-size: 29px; font-weight: bold; user-select: none;">2,0,-2</text><text x="0" y="9.28" style="text-anchor: middle; font-family: Calibri; font-size: 29px; font-weight: bold; user-select: none;">0,0,0</text><text x="103.92304845413263" y="9.28" style="text-anchor: middle; font-family: Calibri; font-size: 29px; font-weight: bold; user-select: none;">1,0,-1</text><text x="207.84609690826525" y="9.28" style="text-anchor: middle; font-family: Calibri; font-size: 29px; font-weight: bold; user-select: none;">2,0,-2</text><text x="259.80762113533154" y="-80.72" style="text-anchor: middle; font-family: Calibri; font-size: 29px; font-weight: bold; user-select: none;">2,1,-3</text><path d="M 51.96152422706632 -29.999999999999996 L3.67394039744206e-15 -60 L-51.96152422706632 -29.999999999999996 L-51.96152422706633 29.999999999999982 L-1.1021821192326178e-14 60 L51.961524227066306 30.00000000000003 Z" fill="#DADADA" fill-opacity="0.8" stroke="black" stroke-width="6" class="hexagon" id="a0b0"></path><text x="0" y="9.28" style="text-anchor: middle; font-family: Calibri; font-size: 29px; font-weight: bold; user-select: none;">0,0,0</text><path d="M 155.88457268119896 -29.999999999999996 L103.92304845413263 -60 L51.961524227066306 -29.999999999999996 L51.9615242270663 29.999999999999982 L103.92304845413261 60 L155.88457268119893 30.00000000000003 Z" fill="#DADADA" fill-opacity="0.8" stroke="black" stroke-width="6" class="hexagon" id="a1b0"></path><text x="103.92304845413263" y="9.28" style="text-anchor: middle; font-family: Calibri; font-size: 29px; font-weight: bold; user-select: none;">1,0,-1</text><path d="M 259.8076211353316 -29.999999999999996 L207.84609690826525 -60 L155.88457268119893 -29.999999999999996 L155.88457268119893 29.999999999999982 L207.84609690826525 60 L259.80762113533154 30.00000000000003 Z" fill="#DADADA" fill-opacity="0.8" stroke="black" stroke-width="6" class="hexagon" id="a2b0"></path><text x="207.84609690826525" y="9.28" style="text-anchor: middle; font-family: Calibri; font-size: 29px; font-weight: bold; user-select: none;">2,0,-2</text><path d="M 311.76914536239786 -120 L259.80762113533154 -150 L207.84609690826522 -120 L207.84609690826522 -60.000000000000014 L259.80762113533154 -30 L311.76914536239786 -59.99999999999997 Z" fill="#DADADA" fill-opacity="0.8" stroke="black" stroke-width="6" class="hexagon" id="a2b1"></path><text x="259.80762113533154" y="-80.72" style="text-anchor: middle; font-family: Calibri; font-size: 29px; font-weight: bold; user-select: none;">2,1,-3</text><path d="M 103.92304845413264 60 L51.96152422706632 30 L-7.105427357601002e-15 60 L-1.4210854715202004e-14 119.99999999999999 L51.9615242270663 150 L103.92304845413261 120.00000000000003 Z" fill="#DADADA" fill-opacity="0.8" stroke="black" stroke-width="6" class="hexagon" id="a1b-1"></path><text x="51.96152422706631" y="99.28" style="text-anchor: middle; font-family: Calibri; font-size: 29px; font-weight: bold; user-select: none;">1,-1,0</text></svg>