<svg width="1354" height="953" viewBox="-677 -476.5 1354 953"><rect x="-677" y="-476.5" width="1354" height="953" fill="white"></rect><text x="0" y="9.28" style="text-anchor: middle; font-family: Calibri; font-size: 29px; font-weight: bold; user-select: none;">0,0,0</text><text x="0" y="9.28" style="text-anchor: middle; font-family: Calibri; font-size: 29px; font-weight: bold; user-select: none;">0,0,0</text><text x="103.92304845413263" y="9.28" style="text-anchor: middle; font-family: Calibri; font-size: 29px; font-weight: bold; user-select: none;">1,0,-1</text><text x="0" y="9.28" style="text-anchor: middle; font-family: Calibri; font-size: 29px; font-weight: bold; user-select: none;">0,0,0</text><text x="103.92304845413263" y="9.28" style="text-anchor: middle; font-family: Calibri; font-size: 29px; font-weight: bold; user-select: none;">1,0,-1</text><text x="155.88457268119896" y="-80.72" style="text-anchor: middle; font-family: Calibri; font-size: 29px; font-weight: bold; user-select: none;">1,1,-2</text><path d="M 51.96152422706632 -29.999999999999996 L3.67394039744206e-15 -60 L-51.96152422706632 -29.999999999999996 L-51.96152422706633 29.999999999999982 L-1.1021821192326178e-14 60 L51.961524227066306 30.00000000000003 Z" fill="#DADADA" fill-opacity="0.8" stroke="black" stroke-width="6" class="hexagon" id="a0b0"></path><text x="0" y="9.28" style="text-anchor: middle; font-family: Calibri; font-size: 29px; font-weight: bold; user-select: none;">0,0,0</text><path d="M 155.88457268119896 -29.999999999999996 L103.92304845413263 -60 L51.961524227066306 -29.999999999999996 L51.9615242270663 29.999999999999982 L103.92304845413261 60 L155.88457268119893 30.00000000000003 Z" fill="#DADADA" fill-opacity="0.8" stroke="black" stroke-width="6" class="hexagon" id="a1b0"></path><text x="103.92304845413263" y="9.28" style="text-anchor: middle; font-family: Calibri; font-size: 29px; font-weight: bold; user-select: none;">1,0,-1</text><path d="M 207.84609690826528 -120 L155.88457268119896 -150 L103.92304845413264 -120 L103.92304845413264 -60.000000000000014 L155.88457268119896 -30 L207.84609690826528 -59.99999999999997 Z" fill="#DADADA" fill-opacity="0.8" stroke="black" stroke-width="6" class="hexagon" id="a1b1"></path><text x="155.88457268119896" y="-80.72" style="text-anchor: middle; font-family: Calibri; font-size: 29px; font-weight: bold; user-select: none;">1,1,-2</text><path d="M 103.92304845413264 -120 L51.96152422706632 -150 L-7.105427357601002e-15 -120 L-1.4210854715202004e-14 -60.000000000000014 L51.9615242270663 -30 L103.92304845413261 -59.99999999999997 Z" fill="#DADADA" fill-opacity="0.8" stroke="black" stroke-width="6" class="hexagon" id="a0b1"></path><text x="51.96152422706631" y="-80.72" style="text-anchor: middle; font-family: Calibri; font-size: 29px; font-weight: bold; user-select: none;">0,1,-1</text></svg>