<svg class="grid-main" width="1231" height="1007" viewBox="-615.5 -503.5 1231 1007"><path d="M 1.4210854715202004e-14 -154 L-66.68395609140177 -192.5 L-133.36791218280354 -154 L-133.36791218280354 -77.00000000000003 L-66.68395609140178 -38.5 L-1.4210854715202004e-14 -76.99999999999997 Z" fill="#B4B4B4" fill-opacity="0.8" stroke="black" stroke-width="6" class="hexagon" id="a-1b1"></path><path d="M -66.68395609140175 -38.49999999999999 L-133.36791218280354 -77 L-200.05186827420533 -38.49999999999999 L-200.05186827420533 38.49999999999998 L-133.36791218280354 77 L-66.68395609140178 38.500000000000036 Z" fill="#B4B4B4" fill-opacity="0.8" stroke="black" stroke-width="6" class="hexagon" id="a-1b0"></path><path d="M 1.4210854715202004e-14 77 L-66.68395609140177 38.5 L-133.36791218280354 77 L-133.36791218280354 153.99999999999997 L-66.68395609140178 192.5 L-1.4210854715202004e-14 154.00000000000003 Z" fill="#B4B4B4" fill-opacity="0.8" stroke="black" stroke-width="6" class="hexagon" id="a0b-1"></path><path d="M 133.36791218280354 77 L66.68395609140177 38.5 L-1.4210854715202004e-14 77 L-1.4210854715202004e-14 153.99999999999997 L66.68395609140175 192.5 L133.36791218280354 154.00000000000003 Z" fill="#B4B4B4" fill-opacity="0.8" stroke="black" stroke-width="6" class="hexagon" id="a1b-1"></path><path d="M 266.73582436560713 -154 L200.05186827420533 -192.5 L133.36791218280354 -154 L133.36791218280354 -77.00000000000003 L200.05186827420533 -38.5 L266.7358243656071 -76.99999999999997 Z" fill="#B4B4B4" fill-opacity="0.8" stroke="black" stroke-width="6" class="hexagon" id="a1b1"></path><path d="M 266.73582436560713 77 L200.05186827420533 38.5 L133.36791218280354 77 L133.36791218280354 153.99999999999997 L200.05186827420533 192.5 L266.7358243656071 154.00000000000003 Z" fill="#B4B4B4" fill-opacity="0.8" stroke="black" stroke-width="6" class="hexagon" id="a2b-1"></path><path d="M 200.05186827420533 -269.5 L133.36791218280354 -308 L66.68395609140175 -269.5 L66.68395609140175 -192.50000000000003 L133.36791218280354 -154 L200.05186827420528 -192.49999999999997 Z" fill="#B4B4B4" fill-opacity="0.8" stroke="black" stroke-width="6" class="hexagon" id="a0b2"></path><path d="M -133.36791218280354 -154 L-200.05186827420533 -192.5 L-266.73582436560713 -154 L-266.73582436560713 -77.00000000000003 L-200.05186827420533 -38.5 L-133.3679121828036 -76.99999999999997 Z" fill="#B4B4B4" fill-opacity="0.8" stroke="black" stroke-width="6" class="hexagon" id="a-2b1"></path><path d="M -200.05186827420528 -38.49999999999999 L-266.7358243656071 -77 L-333.41978045700887 -38.49999999999999 L-333.41978045700887 38.49999999999998 L-266.7358243656071 77 L-200.05186827420533 38.500000000000036 Z" fill="#B4B4B4" fill-opacity="0.8" stroke="black" stroke-width="6" class="hexagon" id="a-2b0"></path><path d="M -66.68395609140175 192.5 L-133.36791218280354 154 L-200.05186827420533 192.5 L-200.05186827420533 269.5 L-133.36791218280354 308 L-66.68395609140178 269.50000000000006 Z" fill="#B4B4B4" fill-opacity="0.8" stroke="black" stroke-width="6" class="hexagon" id="a0b-2"></path><path d="M 66.68395609140178 192.5 L4.7148901767173095e-15 154 L-66.68395609140178 192.5 L-66.68395609140178 269.5 L-1.4144670530151929e-14 308 L66.68395609140175 269.50000000000006 Z" fill="#B4B4B4" fill-opacity="0.8" stroke="black" stroke-width="6" class="hexagon" id="a1b-2"></path><path d="M 200.05186827420533 192.5 L133.36791218280354 154 L66.68395609140175 192.5 L66.68395609140175 269.5 L133.36791218280354 308 L200.05186827420528 269.50000000000006 Z" fill="#B4B4B4" fill-opacity="0.8" stroke="black" stroke-width="6" class="hexagon" id="a2b-2"></path><path d="M 2.842170943040401e-14 -385 L-66.68395609140175 -423.5 L-133.36791218280354 -385 L-133.36791218280354 -308 L-66.68395609140177 -269.5 L0 -307.99999999999994 Z" fill="#202020" fill-opacity="0.8" stroke="black" stroke-width="6" class="hexagon" id="a-2b3"></path><path d="M -133.36791218280354 -385 L-200.05186827420533 -423.5 L-266.73582436560713 -385 L-266.73582436560713 -308 L-200.05186827420533 -269.5 L-133.3679121828036 -307.99999999999994 Z" fill="#202020" fill-opacity="0.8" stroke="black" stroke-width="6" class="hexagon" id="a-3b3"></path><path d="M -200.05186827420533 -269.5 L-266.73582436560713 -308 L-333.4197804570089 -269.5 L-333.4197804570089 -192.50000000000003 L-266.73582436560713 -154 L-200.0518682742054 -192.49999999999997 Z" fill="#202020" fill-opacity="0.8" stroke="black" stroke-width="6" class="hexagon" id="a-3b2"></path><path d="M -266.73582436560713 -154 L-333.4197804570089 -192.5 L-400.1037365484107 -154 L-400.1037365484107 -77.00000000000003 L-333.4197804570089 -38.5 L-266.7358243656072 -76.99999999999997 Z" fill="#202020" fill-opacity="0.8" stroke="black" stroke-width="6" class="hexagon" id="a-3b1"></path><path d="M -333.41978045700887 -38.49999999999999 L-400.10373654841067 -77 L-466.78769263981246 -38.49999999999999 L-466.78769263981246 38.49999999999998 L-400.10373654841067 77 L-333.4197804570089 38.500000000000036 Z" fill="#202020" fill-opacity="0.8" stroke="black" stroke-width="6" class="hexagon" id="a-3b0"></path><path d="M -266.7358243656071 77 L-333.41978045700887 38.5 L-400.10373654841067 77 L-400.10373654841067 153.99999999999997 L-333.41978045700887 192.5 L-266.73582436560713 154.00000000000003 Z" fill="#202020" fill-opacity="0.8" stroke="black" stroke-width="6" class="hexagon" id="a-2b-1"></path><path d="M -200.05186827420528 192.5 L-266.7358243656071 154 L-333.41978045700887 192.5 L-333.41978045700887 269.5 L-266.7358243656071 308 L-200.05186827420533 269.50000000000006 Z" fill="#202020" fill-opacity="0.8" stroke="black" stroke-width="6" class="hexagon" id="a-1b-2"></path><path d="M -133.36791218280354 308 L-200.05186827420533 269.5 L-266.73582436560713 308 L-266.73582436560713 385 L-200.05186827420533 423.5 L-133.3679121828036 385.00000000000006 Z" fill="#202020" fill-opacity="0.8" stroke="black" stroke-width="6" class="hexagon" id="a0b-3"></path><path d="M 0 308 L-66.68395609140178 269.5 L-133.36791218280356 308 L-133.36791218280356 385 L-66.6839560914018 423.5 L-2.842170943040401e-14 385.00000000000006 Z" fill="#202020" fill-opacity="0.8" stroke="black" stroke-width="6" class="hexagon" id="a1b-3"></path><path d="M 133.36791218280354 308 L66.68395609140175 269.5 L-2.842170943040401e-14 308 L-2.842170943040401e-14 385 L66.68395609140174 423.5 L133.3679121828035 385.00000000000006 Z" fill="#202020" fill-opacity="0.8" stroke="black" stroke-width="6" class="hexagon" id="a2b-3"></path><path d="M 266.73582436560713 308 L200.05186827420533 269.5 L133.36791218280354 308 L133.36791218280354 385 L200.05186827420533 423.5 L266.7358243656071 385.00000000000006 Z" fill="#202020" fill-opacity="0.8" stroke="black" stroke-width="6" class="hexagon" id="a3b-3"></path><path d="M 266.73582436560713 -385 L200.05186827420533 -423.5 L133.36791218280354 -385 L133.36791218280354 -308 L200.05186827420533 -269.5 L266.7358243656071 -307.99999999999994 Z" fill="#202020" fill-opacity="0.8" stroke="black" stroke-width="6" class="hexagon" id="a0b3"></path><path d="M 133.36791218280356 -385 L66.68395609140178 -423.5 L0 -385 L0 -308 L66.68395609140177 -269.5 L133.36791218280354 -307.99999999999994 Z" fill="#202020" fill-opacity="0.8" stroke="black" stroke-width="6" class="hexagon" id="a-1b3"></path><path d="M 133.36791218280354 -154 L66.68395609140177 -192.5 L-1.4210854715202004e-14 -154 L-1.4210854715202004e-14 -77.00000000000003 L66.68395609140175 -38.5 L133.36791218280354 -76.99999999999997 Z" fill="#B4B4B4" fill-opacity="0.8" stroke="black" stroke-width="6" class="hexagon" id="a0b1"></path><path d="M 66.68395609140178 -38.49999999999999 L4.7148901767173095e-15 -77 L-66.68395609140178 -38.49999999999999 L-66.68395609140178 38.49999999999998 L-1.4144670530151929e-14 77 L66.68395609140175 38.500000000000036 Z" fill="#FFFF4C" fill-opacity="0.8" stroke="black" stroke-width="6" class="hexagon" id="a0b0"></path><path d="M -66.68395609140175 -269.5 L-133.36791218280354 -308 L-200.05186827420533 -269.5 L-200.05186827420533 -192.50000000000003 L-133.36791218280354 -154 L-66.68395609140178 -192.49999999999997 Z" fill="#FF4C4C" fill-opacity="0.8" stroke="black" stroke-width="6" class="hexagon" id="a-2b2"></path><path d="M 66.68395609140178 -269.5 L4.7148901767173095e-15 -308 L-66.68395609140178 -269.5 L-66.68395609140178 -192.50000000000003 L-1.4144670530151929e-14 -154 L66.68395609140175 -192.49999999999997 Z" fill="#4CFFFF" fill-opacity="0.8" stroke="black" stroke-width="6" class="hexagon" id="a-1b2"></path><path d="M -133.36791218280354 77 L-200.05186827420533 38.5 L-266.73582436560713 77 L-266.73582436560713 153.99999999999997 L-200.05186827420533 192.5 L-133.3679121828036 154.00000000000003 Z" fill="#4CFF4C" fill-opacity="0.8" stroke="black" stroke-width="6" class="hexagon" id="a-1b-1"></path><path d="M 200.05186827420533 -38.49999999999999 L133.36791218280354 -77 L66.68395609140175 -38.49999999999999 L66.68395609140175 38.49999999999998 L133.36791218280354 77 L200.05186827420528 38.500000000000036 Z" fill="#202020" fill-opacity="0.8" stroke="black" stroke-width="6" class="hexagon" id="a1b0"></path><path d="M 400.10373654841067 308 L333.41978045700887 269.5 L266.7358243656071 308 L266.7358243656071 385 L333.41978045700887 423.5 L400.1037365484106 385.00000000000006 Z" fill="#202020" fill-opacity="0.8" stroke="black" stroke-width="6" class="hexagon" id="a4b-3"></path><path d="M 466.78769263981246 192.5 L400.10373654841067 154 L333.41978045700887 192.5 L333.41978045700887 269.5 L400.10373654841067 308 L466.7876926398124 269.50000000000006 Z" fill="#202020" fill-opacity="0.8" stroke="black" stroke-width="6" class="hexagon" id="a4b-2"></path><path d="M 533.4716487312141 77 L466.7876926398124 38.5 L400.1037365484106 77 L400.1037365484106 153.99999999999997 L466.7876926398124 192.5 L533.4716487312141 154.00000000000003 Z" fill="#202020" fill-opacity="0.8" stroke="black" stroke-width="6" class="hexagon" id="a4b-1"></path><path d="M 600.1556048226159 -38.49999999999999 L533.4716487312141 -77 L466.78769263981235 -38.49999999999999 L466.78769263981235 38.49999999999998 L533.4716487312141 77 L600.1556048226159 38.500000000000036 Z" fill="#202020" fill-opacity="0.8" stroke="black" stroke-width="6" class="hexagon" id="a4b0"></path><path d="M 533.4716487312141 -154 L466.7876926398124 -192.5 L400.1037365484106 -154 L400.1037365484106 -77.00000000000003 L466.7876926398124 -38.5 L533.4716487312141 -76.99999999999997 Z" fill="#202020" fill-opacity="0.8" stroke="black" stroke-width="6" class="hexagon" id="a3b1"></path><path d="M 466.78769263981246 -269.5 L400.10373654841067 -308 L333.41978045700887 -269.5 L333.41978045700887 -192.50000000000003 L400.10373654841067 -154 L466.7876926398124 -192.49999999999997 Z" fill="#202020" fill-opacity="0.8" stroke="black" stroke-width="6" class="hexagon" id="a2b2"></path><path d="M 400.10373654841067 -385 L333.41978045700887 -423.5 L266.7358243656071 -385 L266.7358243656071 -308 L333.41978045700887 -269.5 L400.1037365484106 -307.99999999999994 Z" fill="#202020" fill-opacity="0.8" stroke="black" stroke-width="6" class="hexagon" id="a1b3"></path><path d="M 333.41978045700887 -38.49999999999999 L266.7358243656071 -77 L200.05186827420528 -38.49999999999999 L200.05186827420528 38.49999999999998 L266.7358243656071 77 L333.4197804570088 38.500000000000036 Z" fill="#FFA54C" fill-opacity="0.8" stroke="black" stroke-width="6" class="hexagon" id="a2b0"></path><path d="M 466.78769263981246 -38.49999999999999 L400.10373654841067 -77 L333.41978045700887 -38.49999999999999 L333.41978045700887 38.49999999999998 L400.10373654841067 77 L466.7876926398124 38.500000000000036 Z" fill="#FF4C4C" fill-opacity="0.8" stroke="black" stroke-width="6" class="hexagon" id="a3b0"></path><path d="M 333.41978045700887 -269.5 L266.7358243656071 -308 L200.05186827420528 -269.5 L200.05186827420528 -192.50000000000003 L266.7358243656071 -154 L333.4197804570088 -192.49999999999997 Z" fill="#B4B4B4" fill-opacity="0.8" stroke="black" stroke-width="6" class="hexagon" id="a1b2"></path><path d="M 400.10373654841067 -154 L333.41978045700887 -192.5 L266.7358243656071 -154 L266.7358243656071 -77.00000000000003 L333.41978045700887 -38.5 L400.1037365484106 -76.99999999999997 Z" fill="#B4B4B4" fill-opacity="0.8" stroke="black" stroke-width="6" class="hexagon" id="a2b1"></path><path d="M 400.1037365484107 77 L333.4197804570089 38.5 L266.73582436560713 77 L266.73582436560713 153.99999999999997 L333.4197804570089 192.5 L400.10373654841067 154.00000000000003 Z" fill="#B4B4B4" fill-opacity="0.8" stroke="black" stroke-width="6" class="hexagon" id="a3b-1"></path><path d="M 333.4197804570089 192.5 L266.73582436560713 154 L200.05186827420533 192.5 L200.05186827420533 269.5 L266.73582436560713 308 L333.41978045700887 269.50000000000006 Z" fill="#B4B4B4" fill-opacity="0.8" stroke="black" stroke-width="6" class="hexagon" id="a3b-2"></path></svg>